<?xml version="1.0" standalone="no"?><!DOCTYPE svg PUBLIC "-//W3C//DTD SVG 1.1//EN" "http://www.w3.org/Graphics/SVG/1.1/DTD/svg11.dtd" [<!ENTITY nbsp " ">]><svg data-noselect=""
  viewBox="265 160 250 230"
  width="400"
  height="364.47554443001195"
  ref="svg_canvas"
  preserveAspectRatio="none"
  version="1.1" xmlns="http://www.w3.org/2000/svg"
  style="background: rgba(0,0,0,0);">
    <defs></defs>
    <g id="shape_rv2574MFEq" class="icon"  ref="shape_rv2574MFEq" key="shape_rv2574MFEq" transform="translate(327.03847122192,183.42260696769807) rotate(0,63.788098790529,57.56219672418) scale(1,1)" style="cursor:move;display:inline;opacity:1;" filter="">
            <g style="display:inline"><rect fill="rgba(0,0,0,0)" width="147.57619758106" height="121.82667458168386" x="0" y="0"></rect><svg fill="#000000" xmlns="http://www.w3.org/2000/svg" xmlns:xlink="http://www.w3.org/1999/xlink" version="1.1" x="0px" y="0px" viewBox="9.736000061035156 20.712766647338867 81.96399688720703 65.4206771850586" enable-background="new 0 0 100 100" xml:space="preserve" class="style-removed" width="127.57619758106" height="101.82667458168386" preserveAspectRatio="none" data-parent="shape_rv2574MFEq"><path d="M16.1,80.2c-3.4,0.1-3.7-2.4-4-4.9c-1.7-13.6-2.2-27.2-2.3-40.9c0-1.4-0.4-3,0.8-4.2c1.4,0,1.5,1,1.6,1.9  c0.4,3,0.8,5.9,1,8.9c0.8,11.6,1.6,23.2,2.3,34.8c0,0.6,0.2,1.3,0.3,2.2c0.9-0.2,1.7-0.2,2.5-0.4c3.3-0.8,6.7-1.6,10-2.4  c5.6-1.3,11.3-1,16.9,0.1c1.2,0.2,2.3,0.5,3.7,0.8c-1.8-16.1-2-32.1-1.5-48.6c0.2,0.3,0.1,0.1,0,0c-3.3-1-6.5-2.1-9.8-3  c-7.9-2-15.5-1.3-22.7,2.7c-0.8,0.4-1.7,0.8-2.5,1.2c-0.1,0.1-0.3-0.1-0.7-0.1c-0.5-1.3,0.5-1.8,1.3-2.3c2.9-2.1,6.1-3.7,9.5-4.4  c8.8-1.9,17.2-0.8,25,3.8c0.5,0.3,1,0.5,1.5,0.8c7.5-4.8,15.8-5.8,24.4-4.5c6.5,1,13.4,2.9,18.3,7.8c-0.8,6.8-1.6,13.7-2.4,20.6  c-1.3,10.4-2.4,20.9-2.8,31.4c-0.1,2.3-0.6,2.6-3.3,2.2c-0.1,0.1-0.3,0.2-0.4,0.4c-2.5,3.6-3,1.7-6.8-0.2c-3.2-1.5-6.5-2.6-10.1-3.2  c-3-0.5-5.9-0.6-8.9,0.1c-3.5,0.9-6.8,0.9-10.4,0.3c-6.5-1.2-12.9-0.7-19.3,1.2c-1.7,0.5-3.4,0.9-5.1,1.6c-3.9,1.6-5.3,1.6-6.1-1.6  C16,81.5,16.1,80.9,16.1,80.2z M87.8,30.4c-12.6-7.3-25.2-8.5-38.2-1.8c0.8,15.6,1.7,31,2.5,46.6c5.4-2.4,10.6-2.5,15.9-2  c5.4,0.5,10,3.1,15.1,5.3C84,62.2,85.2,46.3,87.8,30.4z M53.2,78.9c1-0.3,1.5-0.4,2-0.5c3.1-1.1,6.3-1.4,9.6-1  c4,0.4,7.8,1.5,11.5,3.1c0.9,0.4,1.8,0.7,2.7,1C73.6,76.1,55.4,74.6,53.2,78.9z M42,61.2c-5.4-1.3-10.9-0.2-16.3-0.1  c-1.9,0-3.6,1.1-4.6,3.4c8-1.2,15.7-1.3,23.7-1.4C44.2,61.3,43,61.4,42,61.2z M24.6,42.6c1.6,0.5,3.1,0.1,4.6-0.3  c3.3-0.9,6.6-0.9,9.8,0.3c0.6,0.2,1.2,0.3,1.8,0.5c-0.3-1.7-0.2-1.8-1-2.1c-3.5-1.7-7-2.8-11-1.5c-1.4,0.4-2.9,0.4-4.3,0.6  c-1.1,0.2-2.2,0.2-3.2,0.6c-1.4,0.6-2.5,1.5-2.6,3.8C20.9,43.4,22.5,42,24.6,42.6z M34.6,30.9c-4.6,0.3-9.2,0.6-13.8,1.1  c-1.6,0.2-2.8,1.3-3,3c6.9-1,13.6-2,20.5-3C37.2,31,35.9,30.9,34.6,30.9z M38.6,51c-5.6-1.8-11.2-1-16.8-0.1  c-0.9,0.2-1.7,0.5-1.6,1.9c6.5-0.4,12.8-0.8,19.5-1.2C39.1,51.3,38.9,51.1,38.6,51z M78.4,44.6c-2.9-0.9-5.8-1.9-8.8-2.5  c-2.3-0.4-4.8-0.2-7.2-0.2c-2.1-0.1-3.9,0.6-5.1,2.3c-0.3,0.4-0.2,1.1-0.4,1.7c7.5-1.6,21.8,0.3,22.4-0.1  C80,45.3,78.6,44.6,78.4,44.6z M57.1,34.9c1.7-1.1,3.5-1.5,5.5-1.3c4,0.4,7.9,0.7,11.9,1c1,0.1,2.1,0,3.2,0c0.1-0.8,0.1-0.3-0.3-0.8  c-0.2-0.3-0.6-0.4-1-0.5c-5-1.2-10.1-2.4-15.3-2.5c-1.8-0.1-3.3,0.5-4.6,1.6c-0.9,0.7-1.6,1.6-0.6,2.9  C56.3,35.2,56.8,35.2,57.1,34.9z M65.3,66.6c3.8,0.6,7.5,1.4,11.2,2.1c0.8,0.1,2.5,0.9,2.5,0c0-0.9-1.6-1.8-2.6-2  c-3.8-0.9-7.6-1.8-11.4-2.5c-1.3-0.3-2.6-0.4-3.9-0.3c-1.1,0.1-2.4,0.3-2.9,1.9C60.8,66.1,63.1,66.3,65.3,66.6z M67.5,56  c3,0.3,6,0.7,9,1.1c0.1-0.2,0.5,0,0.2-0.6c-0.4-0.6-1.5-0.8-2.3-1.1c-2.4-0.7-4.8-1.5-7.2-1.9c-2.2-0.4-4.4-0.4-6.6-0.4  c-1.1,0-2.2,0.3-2.5,2.1C61.4,55.4,64.5,55.7,67.5,56z" fill="#4abf8a"></path></svg></g>
        </g><g id="shape_YgY44ELXB5" class="brand_name"  ref="shape_YgY44ELXB5" key="shape_YgY44ELXB5" transform="translate(215.20656417838,104.03815139771001) rotate(0,297.88735293891,243.14001115883102) scale(1,1)" style="cursor:move;display:inline;opacity:1;" filter="">
            <g style="display:inline"><svg xmlns="http://www.w3.org/2000/svg" version="1.1" xmlns:xlink="http://www.w3.org/1999/xlink" width="486.48" height="486.72" viewBox="0 0 486.48 486.72" preserveAspectRatio="none" data-parent="shape_YgY44ELXB5"><rect fill="rgba(0,0,0,0)" width="216" height="81" x="67.62" y="202.86"></rect><g data-width="215.80289062500003" transform="translate(67.71855468749999, 0)"><path d="M12.05-54.94L12.05-16.54L31.93-16.54L31.93-7.79L3.30-7.79L3.30-54.94L12.05-54.94Z" transform="translate(0 263.86) " fill="#4abf8a" stroke="rgb(255, 255, 255)" stroke-width="0.113" data-glyph-w="33.909052734375" data-glyph-h="70.45951171875001" data-glyph-ascender="56.658164062500006" data-glyph-descender="-13.801347656250002"></path><path d="M31.60-54.94L40.35-54.94L40.35-22.95Q40.35-16.31 34.93-11.62L34.93-11.62Q29.52-6.93 21.82-6.93L21.82-6.93Q14.16-6.93 8.72-11.62L8.72-11.62Q3.30-16.31 3.30-22.95L3.30-22.95L3.30-54.94L12.05-54.94L12.05-22.95Q12.05-19.94 14.92-17.83L14.92-17.83Q17.80-15.68 21.82-15.68L21.82-15.68Q25.89-15.68 28.73-17.83L28.73-17.83Q31.60-19.94 31.60-22.95L31.60-22.95L31.60-54.94Z" transform="translate(33.909052734375 263.86) " fill="#4abf8a" stroke="rgb(255, 255, 255)" stroke-width="0.113" data-glyph-w="43.64923828125" data-glyph-h="70.45951171875001" data-glyph-ascender="56.658164062500006" data-glyph-descender="-13.801347656250002"></path><path d="M26.41-55.80Q16.28-55.80 9.15-48.63L9.15-48.63Q1.98-41.47 1.98-31.37L1.98-31.37Q1.98-21.23 9.15-14.10L9.15-14.10Q16.28-6.93 26.41-6.93L26.41-6.93Q37.77-6.93 45.10-15.65L45.10-15.65L38.40-21.30Q33.71-15.68 26.41-15.68L26.41-15.68Q19.91-15.68 15.32-20.27L15.32-20.27Q10.73-24.86 10.73-31.37L10.73-31.37Q10.73-37.84 15.32-42.43L15.32-42.43Q19.91-47.02 26.41-47.02L26.41-47.02Q33.71-47.02 38.40-41.44L38.40-41.44L45.10-47.05Q37.77-55.80 26.41-55.80L26.41-55.80Z" transform="translate(77.558291015625 263.86) " fill="#4abf8a" stroke="rgb(255, 255, 255)" stroke-width="0.113" data-glyph-w="47.083066406250005" data-glyph-h="70.45951171875001" data-glyph-ascender="56.658164062500006" data-glyph-descender="-13.801347656250002"></path><path d="M30.18-7.79L12.05-27.57L12.05-7.79L3.30-7.79L3.30-54.94L12.05-54.94L12.05-35.16L30.18-54.94L42.03-54.94L20.44-31.37L42.03-7.79L30.18-7.79Z" transform="translate(124.641357421875 263.86) " fill="#4abf8a" stroke="rgb(255, 255, 255)" stroke-width="0.113" data-glyph-w="42.691728515625" data-glyph-h="70.45951171875001" data-glyph-ascender="56.658164062500006" data-glyph-descender="-13.801347656250002"></path><path d="M19.88-7.79L19.88-29.45L0.66-54.94L11.62-54.94L24.23-38.20L36.85-54.94L47.81-54.94L28.63-29.45L28.63-7.79L19.88-7.79Z" transform="translate(167.33308593750002 263.86) " fill="#4abf8a" stroke="rgb(255, 255, 255)" stroke-width="0.113" data-glyph-w="48.4698046875" data-glyph-h="70.45951171875001" data-glyph-ascender="56.658164062500006" data-glyph-descender="-13.801347656250002"></path></g></svg></g>
        </g>
  </svg>
